<!DOCTYPE svg PUBLIC "-//W3C//DTD SVG 20010904//EN" "http://www.w3.org/TR/2001/REC-SVG-20010904/DTD/svg10.dtd">
<svg version="1.0" xmlns="http://www.w3.org/2000/svg" width="280px" height="158px" viewBox="0 0 2800 1580" preserveAspectRatio="xMidYMid meet">
<g id="layer101" fill="#070405" stroke="none">
<path d="M1139 1511 c-235 -63 -420 -231 -505 -457 -14 -38 -34 -78 -44 -89 -68 -73 -68 -264 -1 -340 10 -11 30 -54 45 -96 50 -141 161 -281 290 -366 117 -78 290 -124 439 -117 297 13 565 207 662 480 16 43 36 88 46 99 33 37 49 92 49 170 0 79 -16 134 -50 170 -10 11 -32 57 -49 101 -84 220 -285 395 -514 449 -88 21 -284 19 -368 -4z"/>
</g>
<g id="layer102" fill="#5b3625" stroke="none">
<path d="M1139 1511 c-37 -10 -96 -32 -133 -49 -65 -31 -186 -116 -186 -131 0 -10 173 -91 193 -91 9 0 25 19 36 43 26 53 78 115 134 159 38 30 36 26 -21 -37 -34 -39 -72 -89 -83 -113 -21 -42 -21 -44 -4 -83 19 -42 45 -52 45 -18 0 28 52 78 89 85 40 8 30 24 -15 24 -34 0 -35 1 -32 33 2 27 8 33 31 35 16 2 41 -1 57 -7 16 -5 38 -7 50 -4 19 5 21 11 15 42 -3 20 -8 44 -11 54 -7 22 24 36 37 16 5 -8 9 -31 9 -51 0 -50 18 -49 26 2 5 30 11 40 25 40 23 0 25 -27 4 -77 -8 -19 -15 -37 -15 -39 0 -13 26 1 62 34 26 23 37 29 30 16 -6 -11 -18 -26 -26 -34 -27 -22 -18 -30 34 -30 49 0 50 0 50 -31 l0 -31 -65 4 c-36 2 -65 1 -65 -2 1 -3 21 -20 46 -38 25 -18 52 -50 62 -70 9 -20 17 -38 18 -40 1 -2 11 1 22 7 33 18 56 92 49 164 -3 37 -2 52 3 37 4 -14 8 -58 9 -99 1 -55 4 -72 14 -68 7 3 69 12 137 21 154 21 170 24 170 34 0 5 -25 36 -56 71 -99 109 -240 194 -377 226 -88 21 -284 19 -368 -4z"/>
<path d="M757 1267 c-52 -64 -94 -136 -123 -213 -14 -38 -34 -78 -44 -89 -68 -73 -68 -264 -1 -340 10 -11 30 -54 45 -96 50 -141 161 -281 290 -366 117 -78 290 -124 439 -117 297 13 565 207 662 480 16 43 36 88 46 99 33 37 49 92 49 170 0 79 -16 134 -50 170 -10 11 -30 51 -44 89 -29 77 -66 146 -78 146 -4 0 -8 -4 -8 -8 0 -4 -44 -16 -97 -26 -106 -19 -238 -53 -265 -67 -31 -17 -40 -46 -23 -73 9 -13 20 -51 26 -84 l11 -60 49 -12 c31 -8 63 -25 84 -45 30 -27 35 -39 35 -76 0 -26 -11 -66 -25 -97 -23 -50 -24 -56 -10 -82 18 -34 19 -87 4 -127 -6 -15 -12 -49 -13 -75 -3 -79 -66 -135 -265 -240 -60 -31 -130 -37 -184 -15 -18 8 -39 12 -47 10 -11 -3 -10 0 3 10 16 13 22 13 45 1 34 -18 139 -18 172 0 25 14 116 67 180 106 54 33 75 68 75 125 1 28 9 64 18 82 22 42 21 67 -4 120 -19 39 -20 46 -6 61 83 95 49 203 -70 225 -30 6 -33 4 -33 -18 0 -15 7 -26 20 -30 18 -6 17 -9 -15 -39 -26 -24 -35 -42 -35 -65 0 -27 3 -31 28 -31 l27 0 -27 -23 c-15 -12 -40 -56 -58 -98 -30 -75 -62 -115 -110 -139 -18 -9 -13 -1 16 26 47 44 71 87 90 159 21 79 20 85 -22 78 -35 -6 -35 -5 -23 15 12 18 10 28 -9 67 -36 74 -106 84 -157 23 -31 -36 -29 -46 15 -75 41 -28 32 -29 -20 -3 -48 25 -69 25 -86 2 -9 -12 -13 -13 -14 -4 0 10 -11 12 -37 9 -21 -2 -30 -2 -21 0 9 2 22 11 28 19 11 12 5 14 -38 14 -28 0 -54 5 -57 10 -6 10 28 15 73 11 27 -2 52 15 52 35 0 26 -31 44 -79 44 -65 0 -94 -29 -89 -91 3 -36 7 -44 28 -50 25 -7 25 -7 -4 -8 -27 -1 -28 -3 -22 -38 3 -21 8 -60 10 -86 5 -59 19 -77 61 -77 19 0 39 -8 49 -19 10 -11 31 -23 46 -26 39 -9 47 -33 9 -27 -27 4 -29 2 -29 -27 0 -45 31 -58 76 -32 l34 20 0 -27 c0 -60 -62 -72 -112 -22 -27 28 -30 35 -24 75 7 41 5 45 -18 51 -13 3 -34 3 -45 -1 -29 -9 -44 -71 -32 -127 6 -23 8 -44 7 -46 -2 -2 -13 8 -24 22 -25 33 -34 33 -22 0 14 -35 13 -39 -6 -23 -39 32 -58 123 -33 159 8 12 9 10 4 -7 -9 -33 9 -28 39 11 25 33 25 35 6 41 -30 10 -78 -22 -102 -68 l-22 -42 -6 34 -5 34 -14 -26 c-8 -15 -18 -27 -23 -27 -20 0 -7 -70 19 -101 49 -58 117 -71 234 -47 44 9 64 9 83 0 33 -15 33 -45 1 -60 -31 -14 -41 -37 -25 -57 11 -13 8 -15 -18 -15 -44 0 -75 14 -139 62 -32 24 -76 52 -98 63 -22 11 -50 36 -63 55 -20 30 -23 44 -19 92 4 48 1 62 -19 91 -13 20 -29 56 -36 81 -11 42 -10 48 11 77 21 28 22 36 12 69 -17 57 -14 80 17 108 15 15 33 39 39 54 7 15 30 39 52 52 22 14 47 36 55 48 9 13 37 51 61 84 25 34 45 68 45 76 0 31 -38 62 -142 114 -164 82 -152 80 -191 31z m667 -542 c19 -14 18 -15 -11 -15 -17 0 -39 3 -49 7 -16 6 -16 7 2 14 28 11 37 10 58 -6z m-254 -55 c0 -14 -62 -22 -90 -12 -21 8 -18 9 24 10 27 1 51 4 54 7 8 8 12 6 12 -5z m272 -61 c-13 -5 -35 -6 -48 -3 -44 11 -33 19 19 15 43 -3 48 -5 29 -12z m-468 -335 c26 -11 27 -13 9 -14 -34 0 -53 10 -68 41 -22 41 -18 49 7 15 12 -15 35 -34 52 -42z"/>
<path d="M1282 1245 c-43 -13 -72 -31 -72 -45 0 -4 40 -12 90 -18 49 -6 111 -20 136 -31 83 -37 95 -24 39 38 -39 43 -90 71 -127 70 -12 0 -42 -6 -66 -14z"/>
<path d="M1245 1140 c-12 -4 -26 -15 -34 -23 -7 -9 -18 -14 -25 -11 -17 7 -78 -57 -110 -115 -29 -54 -42 -128 -27 -151 8 -12 13 -12 37 0 15 8 47 15 71 14 39 -1 44 1 40 18 -8 28 27 41 92 35 37 -4 60 -12 69 -24 11 -15 16 -16 35 -5 15 9 12 4 -8 -14 -29 -26 -30 -27 -33 -7 -6 37 -123 57 -122 21 1 -7 6 -40 13 -73 15 -70 37 -83 62 -36 18 35 61 61 103 61 36 0 77 -38 92 -86 13 -38 18 -40 45 -20 16 11 20 30 23 110 4 88 2 100 -22 150 -38 77 -97 140 -144 154 -45 14 -127 15 -157 2z m5 -150 c12 -12 33 -20 55 -20 37 0 43 8 23 28 -16 16 -5 15 37 -2 19 -8 35 -19 35 -24 0 -18 -77 -22 -136 -6 -32 8 -67 14 -79 12 -11 -1 -21 2 -22 7 -1 6 5 9 13 7 8 -2 22 2 32 7 22 13 19 14 42 -9z"/>
<path d="M917 882 c-10 -10 -17 -27 -17 -38 0 -12 -13 -25 -33 -34 -28 -13 -32 -21 -35 -57 -2 -24 0 -43 5 -43 4 0 20 14 34 31 18 22 38 34 65 38 31 5 39 11 37 26 -12 98 -23 113 -56 77z"/>
<path d="M1012 758 c-7 -7 -12 -25 -12 -40 0 -21 5 -28 20 -28 11 0 20 5 20 10 0 6 -5 10 -11 10 -7 0 -9 11 -5 30 6 34 5 35 -12 18z"/>
<path d="M908 653 c-14 -2 -39 -15 -53 -29 -24 -22 -27 -31 -23 -74 3 -27 13 -61 22 -75 l18 -27 24 23 c21 20 23 29 18 69 -5 40 -3 50 20 77 38 45 37 46 -26 36z"/>
</g>
<g id="layer103" fill="#8b3c1c" stroke="none">
<path d="M758 1267 c-19 -23 -43 -58 -54 -77 -10 -19 -22 -38 -27 -41 -4 -3 -21 -43 -37 -88 -16 -46 -36 -91 -44 -100 -68 -75 -75 -243 -12 -318 13 -15 36 -64 51 -108 37 -108 86 -186 170 -270 81 -82 145 -127 224 -155 31 -11 63 -24 73 -30 25 -14 187 -37 248 -35 30 1 75 6 100 10 56 11 43 8 122 33 213 68 380 230 449 438 17 48 41 100 54 116 61 72 61 234 -1 307 -14 16 -36 61 -49 100 -35 98 -58 137 -81 133 -11 -2 -41 -7 -69 -12 -112 -18 -276 -63 -300 -82 -26 -20 -32 -47 -15 -64 5 -5 15 -38 22 -73 l13 -62 55 -19 c107 -36 140 -120 86 -220 -22 -42 -23 -47 -9 -74 15 -29 14 -63 -2 -181 -11 -73 -15 -84 -46 -120 -40 -45 -233 -161 -290 -174 -30 -7 -56 -7 -84 1 -22 6 -72 10 -110 9 -68 -2 -73 0 -134 41 -35 24 -84 55 -110 70 -25 15 -59 41 -74 59 -26 28 -28 37 -26 93 3 52 -1 68 -25 109 -39 67 -45 121 -16 152 20 21 21 28 11 56 -19 54 -14 95 13 117 13 10 31 35 39 55 11 25 28 42 54 54 26 12 51 38 79 81 22 34 51 73 63 86 19 20 22 30 14 53 -7 23 -33 40 -150 100 l-141 73 -34 -43z"/>
</g>
<g id="layer104" fill="#70594d" stroke="none">
<path d="M1139 1511 c-37 -10 -96 -32 -133 -49 -66 -31 -186 -116 -186 -131 0 -9 179 -91 196 -91 5 0 22 24 37 54 28 54 152 184 164 172 4 -3 -24 -37 -61 -75 -36 -38 -73 -86 -82 -107 -14 -34 -14 -40 2 -76 20 -45 35 -45 46 -1 8 32 60 73 92 73 10 0 14 5 11 10 -3 6 -19 10 -35 10 -33 0 -43 18 -26 51 13 25 28 28 84 15 32 -8 34 -7 27 15 -13 41 -12 45 3 12 8 -18 21 -33 29 -33 14 0 14 9 -4 87 -3 16 0 25 12 29 22 9 35 -11 35 -53 0 -46 17 -49 25 -5 9 47 12 52 30 45 19 -7 19 -41 0 -87 l-16 -37 30 15 c16 9 41 30 55 48 14 18 26 28 26 23 0 -6 -13 -26 -30 -45 -16 -19 -29 -38 -30 -42 0 -5 23 -8 50 -8 49 0 50 -1 50 -30 l0 -30 -62 0 -63 0 43 -36 c23 -20 52 -54 63 -76 l20 -40 24 22 c35 33 48 83 42 154 -3 37 -2 51 3 36 4 -14 8 -58 9 -99 1 -60 4 -72 16 -67 8 3 68 12 132 21 147 20 173 25 173 34 0 4 -25 35 -56 70 -99 109 -240 194 -377 226 -88 21 -284 19 -368 -4z"/>
<path d="M758 1267 c-19 -23 -43 -58 -54 -77 -10 -19 -23 -38 -29 -42 -5 -4 -6 -8 -2 -8 5 0 1 -7 -7 -16 -9 -8 -16 -25 -16 -37 0 -12 -7 -35 -15 -51 -8 -15 -15 -34 -15 -41 0 -7 -7 -19 -17 -26 -32 -27 -56 -101 -56 -174 0 -71 5 -86 68 -205 14 -25 27 -62 31 -83 4 -21 13 -45 21 -53 8 -8 11 -14 6 -14 -4 0 -3 -4 2 -8 6 -4 16 -18 22 -32 20 -45 120 -156 184 -205 68 -52 145 -91 197 -101 17 -3 32 -11 32 -16 0 -6 7 -7 16 -4 9 4 23 1 30 -5 8 -6 14 -9 14 -6 0 3 26 0 58 -7 61 -14 129 -14 202 -2 69 11 73 12 100 23 14 6 41 14 60 18 92 20 225 113 313 220 60 72 96 140 123 230 10 33 28 72 40 87 65 81 65 246 0 326 -22 26 -48 89 -60 145 -4 15 -11 27 -16 27 -6 0 -10 8 -10 19 0 26 -22 42 -40 31 -8 -6 -29 -10 -45 -10 -53 0 -304 -66 -325 -85 -24 -22 -25 -33 -4 -74 9 -17 19 -53 22 -78 7 -45 9 -47 47 -55 87 -18 143 -86 130 -156 -4 -20 -16 -54 -27 -75 -19 -38 -19 -42 -4 -91 12 -40 13 -59 5 -91 -6 -22 -14 -66 -19 -99 -7 -49 -14 -65 -49 -100 -52 -53 -243 -163 -296 -172 -24 -3 -60 0 -85 7 -25 7 -74 12 -110 10 -65 -3 -66 -2 -140 51 -41 29 -93 62 -114 73 -56 29 -76 67 -76 143 0 50 -5 71 -26 104 -37 59 -43 118 -15 157 17 24 20 35 11 50 -20 37 -12 98 15 124 14 13 33 39 43 57 9 19 27 40 40 46 32 16 71 54 87 85 8 14 30 45 49 68 56 67 39 89 -136 177 l-126 63 -34 -42z"/>
<path d="M1282 1245 c-43 -13 -72 -31 -72 -45 0 -4 35 -11 78 -14 42 -4 102 -16 132 -27 86 -31 90 -32 90 -21 0 21 -65 85 -105 103 -47 22 -65 22 -123 4z"/>
<path d="M1244 1140 c-12 -4 -32 -21 -44 -37 -14 -17 -21 -21 -16 -9 6 17 5 18 -16 4 -66 -43 -137 -184 -122 -242 7 -31 3 -30 50 -10 22 9 52 14 71 11 31 -5 33 -4 27 18 -5 20 -1 25 21 31 42 10 123 -1 145 -21 19 -17 21 -17 43 1 12 10 9 4 -7 -14 -34 -36 -46 -40 -46 -14 0 22 -69 47 -101 37 -17 -6 -20 -12 -14 -33 4 -15 9 -46 12 -69 5 -40 33 -69 42 -42 11 34 58 71 98 76 55 7 85 -12 109 -71 21 -50 25 -53 48 -31 20 20 30 92 23 171 -8 106 -90 220 -174 243 -45 13 -119 13 -149 1z m21 -130 c-17 -7 -14 -9 15 -11 l35 -2 -35 -6 c-28 -5 -31 -8 -17 -14 10 -4 32 -7 49 -7 26 0 29 2 18 15 -7 9 -10 18 -7 22 8 7 87 -27 87 -37 0 -14 -85 -19 -130 -8 -25 6 -64 11 -87 12 -47 1 -52 6 -26 27 11 10 14 10 9 2 -10 -17 4 -16 45 2 19 8 41 14 49 14 10 0 8 -3 -5 -9z"/>
<path d="M917 882 c-10 -10 -17 -27 -17 -38 -1 -10 -15 -28 -33 -39 -25 -16 -33 -28 -35 -58 -2 -20 0 -37 3 -37 4 0 21 16 39 35 21 22 43 35 58 35 35 0 53 23 39 49 -6 11 -11 31 -11 45 0 31 -20 34 -43 8z"/>
<path d="M1600 832 c0 -12 8 -22 21 -25 20 -6 20 -8 -15 -40 -27 -26 -36 -42 -36 -67 0 -27 3 -32 20 -27 30 8 33 -9 6 -27 -13 -8 -30 -32 -36 -53 -32 -98 -104 -193 -147 -193 -10 0 -1 12 23 31 60 48 91 107 110 213 6 34 5 38 -12 33 -23 -7 -123 -19 -109 -13 6 2 22 7 36 10 37 8 43 32 19 81 -33 69 -93 82 -147 32 -26 -24 -30 -59 -8 -77 8 -7 32 -19 52 -27 21 -8 27 -12 13 -9 -14 2 -48 14 -77 27 -51 22 -53 22 -73 4 -11 -10 -20 -13 -20 -7 0 8 -16 10 -47 7 -44 -5 -45 -4 -15 5 47 15 39 30 -15 30 -60 0 -96 19 -43 22 19 1 49 1 67 -1 24 -1 35 4 43 19 30 56 -85 86 -135 35 -17 -16 -25 -35 -25 -58 0 -38 12 -53 50 -60 18 -3 15 -5 -12 -6 -21 0 -38 -6 -38 -12 0 -8 20 -10 60 -7 33 2 60 1 60 -3 0 -12 -58 -21 -92 -14 -28 7 -30 5 -23 -11 4 -11 11 -44 14 -74 8 -68 16 -82 44 -75 14 4 35 -2 57 -17 19 -13 47 -29 63 -35 15 -7 27 -16 27 -21 0 -4 -12 -8 -27 -7 -24 0 -28 -4 -28 -30 0 -26 4 -30 31 -33 19 -2 36 3 44 12 19 24 30 19 30 -12 0 -60 -62 -72 -112 -22 -27 28 -30 35 -24 74 6 35 4 45 -9 50 -29 11 -51 6 -70 -14 -15 -16 -17 -32 -13 -92 l6 -72 -26 29 -25 30 7 -35 6 -35 -26 27 c-31 30 -45 112 -24 144 10 18 11 17 7 -3 -7 -32 4 -29 35 11 22 27 24 35 13 40 -32 12 -79 -23 -122 -90 -10 -17 -12 -15 -13 16 l-1 35 -15 -27 c-8 -16 -20 -28 -26 -28 -18 0 -2 -80 22 -105 50 -54 109 -65 226 -43 73 13 114 2 114 -32 0 -11 -4 -20 -8 -20 -5 0 -18 -10 -31 -21 -29 -27 -14 -49 22 -30 18 10 28 9 52 -3 17 -9 55 -16 85 -16 50 0 65 6 164 65 60 35 117 72 128 82 33 30 50 72 44 108 -5 24 -1 43 14 67 25 42 25 71 -1 124 l-20 43 26 40 c15 22 29 57 32 79 5 35 1 44 -28 76 -26 28 -44 39 -77 43 -37 5 -42 3 -42 -15z m-169 -107 l34 -14 -42 -1 c-23 0 -49 3 -59 7 -16 6 -16 7 2 14 27 11 28 11 65 -6z m-3 -105 c28 0 33 -3 22 -10 -22 -14 -54 -12 -76 6 -17 14 -17 15 -1 10 10 -3 35 -6 55 -6z m-442 -350 c13 0 15 -3 7 -11 -13 -13 -50 3 -75 35 -32 38 -19 48 16 12 18 -20 42 -36 52 -36z"/>
<path d="M1008 746 c-6 -14 -8 -32 -5 -40 7 -17 37 -22 37 -6 0 6 -5 10 -11 10 -7 0 -9 11 -5 30 7 36 0 39 -16 6z"/>
<path d="M906 650 c-71 -22 -95 -83 -60 -156 18 -39 33 -42 58 -15 13 14 16 28 10 55 -7 40 9 91 33 100 8 3 11 10 8 16 -7 11 -10 11 -49 0z"/>
</g>
<g id="layer105" fill="#cb5726" stroke="none">
<path d="M1139 1511 c-37 -10 -96 -32 -133 -49 -66 -31 -186 -116 -186 -131 0 -8 180 -91 197 -91 4 0 21 25 37 55 28 54 162 193 174 180 3 -3 -21 -34 -55 -68 -106 -109 -126 -156 -89 -212 20 -30 31 -26 39 14 6 31 59 71 93 71 16 0 17 2 4 10 -8 5 -25 10 -36 10 -29 0 -38 27 -18 57 12 20 21 23 42 18 80 -19 75 -20 67 6 -16 50 -16 53 2 20 10 -19 24 -37 32 -39 13 -4 12 6 -6 85 -3 16 0 25 12 29 21 9 35 -11 35 -52 0 -48 14 -50 25 -2 7 26 17 43 25 43 21 0 24 -46 6 -90 l-16 -37 28 17 c15 9 39 31 55 48 15 17 27 26 27 19 0 -6 -13 -27 -30 -45 -16 -19 -30 -37 -30 -41 0 -3 22 -6 49 -6 56 0 61 -4 54 -40 -4 -24 -7 -25 -66 -22 l-62 3 49 -42 c27 -24 55 -58 63 -77 l14 -34 25 23 c32 30 47 90 40 158 -4 45 -3 50 5 26 5 -16 10 -60 11 -97 1 -37 4 -65 7 -64 3 2 60 11 126 20 171 23 185 26 185 35 0 4 -25 35 -56 70 -99 109 -240 194 -377 226 -88 21 -284 19 -368 -4z"/>
<path d="M765 1273 c-15 -16 -38 -48 -53 -73 -14 -25 -31 -48 -37 -52 -5 -4 -6 -8 -2 -8 5 0 1 -7 -7 -16 -9 -8 -16 -25 -16 -37 0 -12 -7 -35 -15 -51 -8 -15 -15 -34 -15 -41 0 -7 -7 -19 -17 -26 -32 -27 -56 -101 -56 -174 0 -71 5 -86 68 -205 14 -25 27 -62 31 -83 4 -21 13 -44 20 -51 7 -8 10 -16 7 -20 -4 -3 -1 -6 5 -6 6 0 14 -9 17 -20 11 -36 125 -169 170 -200 24 -17 49 -36 57 -43 17 -16 153 -77 173 -77 8 0 15 -5 15 -11 0 -5 4 -8 9 -5 5 3 44 -3 87 -13 114 -27 189 -22 350 24 160 46 281 136 394 295 33 46 54 91 76 165 10 33 28 72 40 87 65 81 65 246 0 326 -22 26 -48 89 -60 145 -4 15 -11 27 -16 27 -6 0 -10 8 -10 19 0 26 -22 42 -40 31 -8 -6 -29 -10 -45 -10 -53 0 -304 -66 -325 -85 -24 -22 -25 -33 -4 -74 9 -17 19 -53 22 -78 7 -45 9 -47 47 -55 87 -18 143 -86 130 -156 -4 -20 -16 -54 -27 -75 -19 -38 -19 -42 -4 -91 12 -40 13 -59 5 -91 -6 -22 -14 -66 -19 -99 -7 -49 -14 -65 -49 -100 -52 -53 -243 -163 -296 -172 -24 -3 -60 0 -85 7 -25 7 -74 12 -110 10 -65 -3 -66 -2 -140 51 -41 29 -93 62 -114 73 -56 29 -76 67 -76 143 0 50 -5 71 -26 104 -37 59 -43 118 -15 157 17 24 20 35 11 50 -20 37 -12 98 15 124 14 13 33 39 43 57 9 19 27 40 40 46 32 16 71 54 87 85 8 14 30 45 49 68 55 66 38 89 -126 172 -65 33 -122 59 -127 59 -6 0 -22 -12 -36 -27z"/>
</g>
<g id="layer106" fill="#9e7a66" stroke="none">
<path d="M1139 1511 c-37 -10 -96 -32 -133 -49 -66 -31 -186 -116 -186 -131 0 -8 180 -91 197 -91 4 0 21 25 37 55 28 54 162 193 174 180 3 -3 -21 -34 -55 -68 -106 -109 -126 -156 -89 -212 20 -30 31 -26 39 14 6 31 59 71 93 71 16 0 17 2 4 10 -8 5 -25 10 -36 10 -25 0 -35 19 -27 49 7 27 30 33 73 21 49 -14 52 -13 44 13 -15 48 -14 51 3 17 10 -19 23 -32 28 -30 11 5 11 11 1 65 -6 28 -3 37 10 42 20 8 34 -13 34 -53 0 -48 14 -50 25 -2 7 26 17 43 25 43 21 0 24 -46 6 -90 l-16 -37 28 17 c15 10 39 32 54 49 16 17 28 26 28 19 0 -7 -13 -28 -30 -46 -16 -19 -30 -37 -30 -41 0 -3 22 -6 49 -6 56 0 61 -4 54 -40 -4 -24 -7 -25 -66 -22 l-62 3 49 -42 c27 -24 55 -58 63 -77 l14 -34 25 23 c32 30 47 90 40 158 -4 45 -3 50 5 26 5 -16 10 -60 11 -97 1 -37 4 -65 7 -64 3 2 60 11 126 20 171 23 185 26 185 35 0 4 -25 35 -56 70 -99 109 -240 194 -377 226 -88 21 -284 19 -368 -4z"/>
<path d="M730 1230 c-12 -16 -19 -30 -16 -30 2 0 14 14 26 30 12 17 19 30 16 30 -2 0 -14 -13 -26 -30z"/>
<path d="M1297 1249 c-102 -24 -104 -54 -4 -63 39 -4 97 -16 127 -27 86 -31 90 -32 90 -21 0 21 -65 85 -105 103 -44 20 -53 21 -108 8z"/>
<path d="M1252 1143 c-12 -2 -32 -18 -44 -34 -16 -21 -24 -26 -30 -17 -12 17 -79 -57 -108 -119 -21 -44 -32 -125 -19 -137 3 -4 23 1 44 10 23 9 53 14 72 11 31 -5 33 -4 27 18 -5 20 -1 25 21 31 41 10 123 -1 144 -20 18 -17 20 -17 40 3 12 12 24 21 28 21 4 0 -8 -16 -27 -35 -37 -38 -61 -46 -54 -17 7 26 -81 52 -102 30 -12 -11 -12 -21 -4 -42 5 -15 10 -42 10 -61 0 -33 30 -60 39 -34 11 34 58 71 97 76 55 7 79 -8 109 -67 18 -35 29 -48 40 -44 22 9 30 48 30 149 0 82 -3 94 -29 139 -75 124 -155 164 -284 139z m13 -134 c-15 -7 -7 -8 29 -5 47 4 116 -17 116 -35 0 -13 -85 -17 -135 -7 -27 7 -67 12 -87 12 -42 0 -47 7 -21 27 11 10 14 10 9 2 -10 -17 5 -16 40 2 16 8 38 15 49 14 l20 0 -20 -10z"/>
<path d="M1265 980 c28 -12 78 -12 70 0 -3 6 -25 10 -48 9 -33 0 -38 -2 -22 -9z"/>
<path d="M916 878 c-9 -12 -16 -29 -16 -38 -1 -8 -15 -24 -33 -35 -22 -14 -33 -30 -35 -49 -5 -39 13 -54 29 -25 17 33 39 48 70 49 40 0 47 15 34 67 -14 55 -27 63 -49 31z"/>
<path d="M1600 831 c0 -12 10 -21 27 -26 l26 -6 -31 -19 c-36 -22 -52 -48 -52 -86 0 -21 4 -25 19 -21 27 7 49 -9 23 -17 -26 -8 -44 -36 -68 -106 -21 -61 -98 -150 -129 -150 -14 0 -9 7 17 28 50 38 85 98 105 176 9 36 14 68 12 70 -2 2 -28 0 -56 -6 -58 -12 -93 -5 -180 33 -51 22 -53 22 -73 4 -11 -10 -20 -13 -20 -7 0 8 -16 10 -47 7 -44 -5 -45 -4 -15 5 47 15 39 30 -15 30 -67 0 -86 15 -31 23 25 3 54 4 65 1 15 -4 25 0 33 16 30 56 -85 86 -135 35 -17 -16 -25 -35 -25 -58 0 -38 12 -53 50 -60 18 -3 15 -5 -12 -6 -21 0 -38 -6 -38 -12 0 -8 20 -10 60 -7 33 2 60 1 60 -3 0 -12 -58 -21 -92 -14 -28 7 -30 5 -23 -11 4 -11 11 -44 14 -74 8 -68 16 -82 44 -75 15 4 36 -3 60 -19 21 -15 44 -26 50 -26 13 0 37 -19 37 -30 0 -3 -12 -6 -27 -5 -24 0 -28 -4 -28 -30 0 -26 4 -30 29 -33 19 -2 36 4 52 19 l24 22 0 -34 c0 -19 -5 -40 -12 -47 -22 -22 -68 -14 -100 18 -26 27 -30 36 -25 67 7 42 -5 63 -38 63 -43 0 -58 -32 -53 -110 l5 -71 -25 23 -25 23 7 -30 6 -30 -30 33 c-24 26 -30 41 -30 76 0 25 3 53 7 63 6 16 8 15 13 -5 5 -23 5 -23 29 8 27 37 18 56 -21 41 -23 -9 -58 -44 -85 -87 -10 -17 -12 -15 -13 16 l-1 35 -15 -27 c-8 -16 -19 -28 -24 -28 -17 0 -11 -54 10 -87 10 -18 38 -42 61 -54 44 -22 57 -22 206 -3 36 4 58 3 68 -6 16 -13 21 -50 7 -50 -5 0 -18 -10 -31 -21 -29 -27 -14 -49 22 -30 18 10 28 9 52 -3 17 -9 55 -16 85 -16 50 0 65 6 164 65 60 35 118 72 129 82 28 25 49 80 42 112 -3 16 2 41 15 66 25 49 25 68 -1 121 l-20 43 26 39 c31 48 40 98 23 132 -30 56 -138 96 -138 51z m-173 -211 c28 0 34 -3 23 -10 -24 -16 -56 -12 -81 11 -23 19 -23 20 -2 10 12 -6 39 -11 60 -11z m-441 -350 c12 0 15 -3 8 -10 -15 -15 -58 3 -78 32 -29 41 -17 50 18 14 18 -20 42 -36 52 -36z"/>
<path d="M1375 813 c-31 -8 -65 -44 -65 -70 0 -55 165 -97 184 -47 3 9 0 29 -8 47 -22 53 -66 80 -111 70z m80 -94 c11 -11 -64 -12 -91 -2 -16 6 -16 7 2 14 21 9 74 2 89 -12z"/>
<path d="M1004 736 c-3 -14 -3 -30 1 -35 8 -14 35 -14 35 -1 0 6 -5 10 -11 10 -7 0 -9 10 -7 25 7 32 -10 33 -18 1z"/>
<path d="M910 649 c-70 -15 -98 -81 -63 -154 19 -39 28 -42 54 -19 14 12 16 26 12 67 -5 46 -2 55 20 79 30 32 25 38 -23 27z"/>
<path d="M1958 405 c-25 -34 -22 -43 3 -11 12 15 20 29 18 31 -2 1 -12 -7 -21 -20z"/>
<path d="M1831 254 c-19 -19 -30 -34 -24 -34 5 0 24 16 43 35 19 19 30 35 24 34 -5 0 -24 -16 -43 -35z"/>
<path d="M805 260 c11 -12 34 -31 50 -43 l30 -20 -30 32 c-16 18 -39 37 -50 43 l-20 11 20 -23z"/>
</g>
<g id="layer107" fill="#d4926f" stroke="none">
<path d="M1145 1510 c-116 -30 -203 -75 -300 -154 l-30 -24 94 -46 c52 -25 100 -46 106 -46 6 0 19 18 28 39 25 56 87 130 141 169 61 44 58 28 -5 -33 -62 -60 -109 -130 -109 -162 0 -13 7 -38 17 -56 l16 -32 18 43 c14 33 28 47 61 62 l43 19 -33 7 c-39 8 -45 15 -36 48 8 32 35 41 80 26 19 -7 37 -10 40 -8 2 3 -2 24 -10 46 -20 56 -12 53 13 -4 24 -54 43 -52 30 3 -14 62 -12 75 14 71 15 -2 23 -11 25 -28 1 -14 5 -36 9 -50 5 -22 7 -20 17 20 14 56 41 63 41 10 -1 -19 -4 -45 -9 -57 -11 -34 6 -28 52 19 49 49 56 38 11 -18 l-31 -39 56 -3 c47 -3 56 -6 56 -22 0 -43 -8 -48 -73 -42 l-62 5 53 -47 c28 -27 55 -59 58 -72 8 -31 30 -28 57 8 22 30 28 97 15 178 l-7 45 15 -40 c8 -22 16 -70 17 -107 1 -39 6 -68 12 -68 22 0 299 41 303 45 9 9 -96 121 -158 167 -135 103 -276 148 -454 147 -75 0 -134 -6 -181 -19z"/>
<path d="M1243 1136 c-17 -8 -37 -24 -43 -37 -9 -17 -14 -19 -20 -8 -7 10 -18 4 -46 -26 -50 -53 -84 -129 -84 -187 0 -27 2 -48 3 -48 2 0 18 7 36 16 19 9 48 14 72 12 43 -4 43 -4 29 22 -9 16 -4 20 36 28 50 11 109 0 134 -24 12 -12 18 -10 42 13 15 15 28 22 28 16 0 -10 -75 -83 -85 -83 -3 0 -3 10 0 23 5 20 1 24 -33 33 -49 13 -87 1 -76 -24 4 -9 9 -36 12 -59 4 -46 31 -80 40 -53 3 8 20 30 38 48 25 25 40 32 71 32 51 0 80 -22 104 -78 19 -43 20 -44 38 -27 26 22 38 145 22 212 -15 58 -85 160 -127 185 -43 25 -149 33 -191 14z m22 -127 c-14 -7 -6 -8 31 -5 39 4 61 0 88 -15 20 -11 42 -17 48 -13 6 4 9 1 7 -5 -7 -20 -117 -22 -192 -4 -55 14 -70 14 -77 4 -5 -10 -9 -10 -15 -2 -9 15 1 41 15 41 6 0 8 -4 5 -10 -8 -13 -3 -13 36 5 19 8 43 14 54 14 l20 0 -20 -10z"/>
<path d="M1600 831 c0 -12 10 -21 27 -26 l26 -6 -32 -20 c-32 -19 -51 -53 -51 -90 0 -15 5 -18 24 -13 13 3 27 1 30 -5 4 -6 3 -11 -2 -11 -21 0 -52 -44 -76 -108 -30 -78 -77 -134 -128 -151 -32 -11 -32 -10 15 30 52 45 83 96 103 174 20 74 21 74 -33 63 -58 -11 -114 -4 -168 22 -63 29 -81 32 -95 15 -15 -17 -35 -21 -24 -3 5 8 0 9 -17 4 -13 -3 -52 -9 -86 -13 -37 -3 -60 -10 -56 -16 3 -5 29 -7 59 -4 30 3 54 1 54 -4 0 -13 -47 -22 -85 -16 -33 5 -34 5 -24 -19 5 -14 9 -41 9 -60 0 -51 16 -74 50 -74 16 0 41 -11 58 -25 17 -14 36 -25 44 -25 15 0 38 -19 38 -31 0 -4 -12 -7 -27 -6 -31 2 -43 -24 -23 -48 18 -21 50 -18 77 7 l23 21 0 -30 c0 -51 -9 -63 -45 -63 -22 0 -45 9 -65 27 -28 23 -31 31 -28 71 4 57 -17 75 -60 51 -26 -14 -27 -18 -27 -92 l1 -77 -24 23 -25 22 7 -30 6 -30 -30 33 c-26 28 -30 40 -30 87 0 29 5 57 10 60 6 3 10 -3 10 -15 0 -19 3 -18 27 10 21 26 24 33 12 40 -20 13 -70 -19 -99 -64 l-25 -39 -3 27 -3 27 -25 -26 c-13 -14 -24 -36 -24 -48 0 -40 38 -87 87 -109 47 -21 52 -21 200 -2 85 11 110 -27 51 -77 -29 -24 -31 -28 -15 -34 11 -5 25 -1 35 9 17 14 20 14 35 -2 14 -13 35 -17 90 -17 70 0 75 2 167 57 52 31 108 67 124 79 36 28 58 79 50 116 -4 19 2 43 16 71 23 45 21 86 -7 131 -14 21 -13 28 17 86 36 71 35 108 -3 142 -50 46 -117 59 -117 24z m-180 -211 c42 -6 43 -7 17 -14 -28 -8 -82 7 -94 27 -4 7 0 8 13 2 10 -4 39 -11 64 -15z m-441 -345 c14 -4 19 -11 14 -16 -14 -14 -58 5 -77 33 -27 38 -18 53 12 20 15 -16 38 -33 51 -37z"/>
<path d="M1075 814 c-29 -31 -33 -85 -10 -104 13 -10 27 -11 70 -1 66 15 72 31 11 29 -24 0 -51 4 -61 9 -14 8 -8 11 27 16 24 3 54 4 65 1 15 -4 25 0 32 15 17 31 -17 61 -69 61 -31 0 -47 -6 -65 -26z"/>
<path d="M1336 789 c-61 -48 -3 -109 104 -109 l50 0 0 34 c0 52 -41 96 -90 96 -23 0 -48 -8 -64 -21z m124 -70 c10 -5 -5 -9 -42 -9 -31 0 -59 4 -63 9 -12 21 69 21 105 0z"/>
<path d="M1846 269 c-11 -11 -15 -19 -9 -19 12 0 38 28 32 34 -2 2 -13 -5 -23 -15z"/>
<path d="M816 258 c3 -7 17 -22 32 -32 27 -19 27 -19 -2 12 -32 35 -38 38 -30 20z"/>
</g>
<g id="layer108" fill="#b79b89" stroke="none">
<path d="M1145 1510 c-116 -30 -203 -75 -300 -153 l-29 -25 74 -37 c118 -60 127 -61 149 -17 33 63 79 120 132 162 28 22 54 38 57 35 3 -3 -24 -35 -60 -72 -93 -98 -112 -141 -86 -198 14 -32 26 -32 34 0 7 29 57 75 82 75 9 1 2 7 -15 15 -34 15 -40 33 -23 66 12 21 44 25 86 9 15 -6 28 -9 30 -7 3 2 -2 23 -10 45 -20 55 -12 53 13 -3 11 -25 23 -45 26 -45 4 0 4 27 0 61 -7 60 -7 61 16 57 17 -2 25 -10 27 -28 1 -14 5 -36 9 -50 5 -22 7 -20 17 20 7 28 17 45 26 45 19 0 25 -38 11 -77 -6 -17 -9 -33 -7 -36 3 -2 25 15 50 38 49 46 62 41 21 -8 -34 -41 -32 -55 5 -47 57 12 82 -11 64 -58 -4 -12 -18 -14 -67 -9 l-62 5 53 -47 c28 -27 55 -59 58 -72 8 -31 30 -28 57 8 22 30 28 97 15 178 l-7 45 15 -40 c8 -22 16 -70 17 -107 1 -39 6 -68 12 -68 22 0 299 41 303 45 9 9 -96 121 -158 167 -135 103 -276 148 -454 147 -75 0 -134 -6 -181 -19z"/>
<path d="M1325 1253 c-47 -9 -105 -36 -105 -47 0 -9 24 -15 76 -19 44 -4 102 -18 140 -33 36 -14 68 -23 71 -20 9 9 -44 73 -79 94 -37 22 -74 31 -103 25z"/>
<path d="M1243 1136 c-17 -8 -37 -24 -43 -37 -9 -15 -14 -18 -20 -9 -11 18 -75 -52 -105 -116 -14 -30 -25 -71 -25 -94 0 -41 1 -42 28 -34 15 5 48 9 75 9 26 0 47 1 47 3 0 2 -4 12 -10 22 -9 16 -4 20 36 28 50 11 109 0 134 -24 12 -12 18 -10 42 13 15 15 28 22 28 16 0 -10 -75 -83 -85 -83 -3 0 -3 10 0 23 5 19 1 24 -32 33 -68 17 -75 11 -67 -59 6 -63 31 -108 42 -77 3 8 20 30 38 48 25 25 40 32 71 32 51 0 80 -22 104 -78 19 -43 20 -44 38 -27 26 22 38 145 22 212 -15 58 -85 160 -127 185 -43 25 -149 33 -191 14z m22 -127 c-14 -7 -6 -8 31 -5 39 4 61 0 88 -15 20 -11 42 -17 48 -13 6 4 9 1 7 -5 -7 -20 -117 -22 -192 -4 -55 14 -70 14 -77 4 -5 -10 -9 -10 -15 -2 -9 15 1 41 15 41 6 0 8 -4 5 -10 -8 -13 -3 -13 36 5 19 8 43 14 54 14 l20 0 -20 -10z"/>
<path d="M916 878 c-9 -12 -16 -29 -16 -38 -1 -8 -15 -24 -33 -35 -22 -14 -33 -30 -35 -49 -5 -43 13 -54 32 -18 16 32 34 42 71 42 24 0 49 22 38 33 -3 4 -9 23 -12 44 -7 44 -24 52 -45 21z"/>
<path d="M1600 831 c0 -12 10 -21 27 -26 l26 -6 -32 -20 c-32 -19 -51 -53 -51 -90 0 -15 5 -18 24 -13 13 3 27 1 30 -5 4 -6 3 -11 -2 -11 -21 0 -52 -44 -76 -108 -30 -78 -77 -134 -128 -151 -32 -11 -32 -10 15 30 52 45 83 96 103 174 20 74 21 74 -33 63 -58 -11 -114 -4 -168 22 -63 29 -81 32 -95 15 -15 -17 -35 -21 -24 -3 5 8 0 9 -17 4 -13 -3 -53 -9 -88 -13 -48 -5 -59 -8 -46 -16 10 -5 37 -7 61 -3 26 3 44 2 44 -4 0 -14 -46 -23 -86 -17 -33 6 -34 5 -22 -16 6 -12 11 -39 9 -59 -3 -55 13 -78 53 -78 22 0 40 -8 56 -25 13 -14 31 -25 40 -25 16 0 40 -18 40 -31 0 -4 -12 -7 -27 -6 -31 2 -43 -24 -23 -48 18 -21 50 -18 77 7 l23 21 0 -30 c0 -51 -9 -63 -45 -63 -22 0 -45 9 -65 27 -28 23 -31 31 -28 71 4 57 -17 75 -60 51 -26 -14 -27 -18 -27 -92 l1 -77 -24 23 -25 22 7 -30 6 -30 -30 33 c-26 28 -30 40 -30 87 0 29 5 57 10 60 6 3 10 -3 10 -15 0 -19 3 -18 27 10 21 26 24 33 12 40 -20 13 -70 -19 -99 -64 l-25 -39 -3 27 -3 27 -25 -26 c-13 -14 -24 -36 -24 -48 0 -40 38 -87 87 -109 47 -21 52 -21 200 -2 85 11 110 -27 51 -77 -29 -24 -31 -28 -15 -34 11 -5 25 -1 35 9 17 14 20 14 35 -2 14 -13 35 -17 90 -17 70 0 75 2 167 57 52 31 108 67 124 79 36 28 58 79 50 116 -4 19 2 43 16 71 23 45 21 86 -7 131 -14 21 -13 28 17 86 36 71 35 108 -3 142 -50 46 -117 59 -117 24z m-180 -211 c42 -6 43 -7 17 -14 -28 -8 -82 7 -94 27 -4 7 0 8 13 2 10 -4 39 -11 64 -15z m-441 -345 c14 -4 19 -11 14 -16 -14 -14 -58 5 -77 33 -27 38 -18 53 12 20 15 -16 38 -33 51 -37z"/>
<path d="M1089 830 c-23 -14 -42 -65 -35 -95 6 -22 12 -25 49 -25 50 0 87 9 87 21 0 4 -20 8 -44 7 -24 0 -51 4 -61 9 -14 8 -8 11 27 16 24 3 54 4 65 1 15 -4 25 0 32 15 24 44 -67 82 -120 51z"/>
<path d="M1336 789 c-15 -12 -26 -30 -26 -45 0 -33 71 -67 133 -62 39 3 42 5 45 34 2 22 -5 40 -23 63 -33 38 -87 43 -129 10z m124 -70 c10 -5 -5 -9 -42 -9 -31 0 -59 4 -63 9 -12 21 69 21 105 0z"/>
<path d="M1004 736 c-7 -29 1 -46 23 -46 13 0 13 3 3 15 -7 8 -10 24 -7 35 3 11 1 20 -4 20 -5 0 -11 -11 -15 -24z"/>
<path d="M859 621 c-34 -34 -38 -72 -12 -126 19 -39 28 -42 54 -19 14 13 17 26 12 66 -5 41 -2 54 16 79 l22 29 -31 0 c-21 0 -41 -9 -61 -29z"/>
</g>
<g id="layer109" fill="#ebc2a6" stroke="none">
<path d="M1200 1523 c-46 -8 -153 -44 -204 -70 -45 -22 -176 -112 -176 -120 0 -5 145 -76 173 -84 25 -7 29 -4 46 29 33 63 79 120 132 162 28 22 54 38 57 35 3 -3 -19 -31 -50 -63 -101 -103 -122 -149 -96 -207 14 -32 26 -32 34 0 7 29 57 75 82 75 9 1 2 7 -15 15 -34 15 -40 33 -23 66 12 21 44 25 86 9 15 -6 28 -9 30 -7 3 2 -2 23 -10 45 -20 55 -12 53 13 -3 11 -25 23 -45 26 -45 4 0 4 27 0 60 -7 57 -6 60 14 60 23 0 26 -4 37 -65 l7 -40 10 48 c9 46 23 57 44 36 8 -8 8 -23 -2 -57 -8 -25 -13 -48 -10 -50 2 -2 24 15 49 38 49 46 62 41 21 -8 -34 -41 -32 -55 5 -47 57 12 82 -11 64 -59 -5 -13 -17 -14 -67 -9 l-62 6 53 -47 c28 -27 55 -59 58 -72 13 -51 61 -12 75 60 5 25 4 70 -1 102 -5 32 -8 60 -5 62 9 9 28 -87 29 -146 l1 -64 45 6 c25 4 94 13 154 21 60 8 111 16 112 18 2 1 -17 28 -42 59 -83 106 -246 205 -395 242 -61 15 -232 20 -299 9z"/>
<path d="M1258 1233 c-60 -24 -48 -39 38 -46 44 -4 102 -18 140 -33 36 -14 68 -24 70 -21 10 10 -30 60 -70 88 -46 34 -116 38 -178 12z"/>
<path d="M1243 1136 c-17 -8 -37 -24 -43 -37 -9 -15 -14 -18 -20 -9 -11 18 -75 -52 -105 -116 -14 -30 -25 -71 -25 -94 0 -41 1 -42 28 -34 15 5 48 9 75 9 26 0 47 1 47 3 0 2 -4 12 -10 22 -22 41 128 46 168 6 15 -14 19 -13 44 11 15 15 28 22 28 16 0 -10 -75 -83 -85 -83 -3 0 -4 10 -2 21 1 17 -6 25 -33 34 -62 21 -72 12 -64 -59 6 -62 31 -107 42 -76 3 8 20 30 38 48 26 26 40 32 76 32 50 0 80 -23 99 -78 11 -33 29 -41 47 -19 17 20 25 158 13 204 -15 56 -89 163 -127 185 -43 25 -150 33 -191 14z m22 -127 c-14 -7 -4 -8 34 -4 43 3 61 0 88 -16 18 -11 37 -18 43 -14 5 3 10 0 10 -7 0 -18 -138 -17 -208 2 -44 12 -55 12 -61 1 -6 -10 -10 -10 -16 -2 -9 15 1 41 15 41 6 0 8 -4 5 -10 -9 -14 5 -12 35 5 14 8 36 14 50 14 23 0 24 -1 5 -10z"/>
<path d="M1265 980 c28 -12 65 -12 65 0 0 6 -19 10 -42 9 -33 0 -38 -2 -23 -9z"/>
<path d="M921 881 c-12 -12 -21 -29 -21 -38 -1 -10 -15 -27 -33 -38 -22 -14 -33 -30 -35 -49 -5 -44 13 -54 32 -17 15 28 27 35 81 43 17 3 20 10 17 53 -4 62 -14 73 -41 46z"/>
<path d="M1600 835 c0 -9 11 -21 25 -27 l26 -12 -31 -19 c-32 -20 -50 -52 -50 -88 0 -16 5 -19 20 -14 35 11 41 -5 12 -30 -16 -13 -40 -53 -55 -92 -34 -84 -70 -128 -122 -148 l-40 -16 48 41 c54 48 89 110 106 188 6 29 11 55 11 56 0 2 -19 -1 -42 -6 -57 -13 -116 -6 -170 21 -50 24 -88 27 -107 9 -10 -9 -15 -10 -18 -2 -2 8 -17 9 -46 3 -23 -4 -60 -8 -82 -9 -34 0 -37 -2 -21 -11 10 -7 37 -9 62 -5 26 3 44 2 44 -4 0 -14 -46 -23 -86 -17 -33 6 -34 5 -22 -16 6 -12 11 -39 9 -59 -3 -55 13 -78 53 -78 22 0 40 -8 56 -25 13 -14 31 -25 40 -25 16 0 40 -18 40 -31 0 -4 -12 -7 -27 -6 -19 1 -28 -3 -31 -16 -9 -44 50 -63 84 -26 17 19 19 19 25 2 12 -34 -5 -68 -35 -71 -66 -8 -113 39 -103 102 7 42 -11 61 -48 52 -36 -9 -48 -40 -42 -113 2 -34 3 -63 1 -63 -2 0 -13 10 -24 22 l-21 23 6 -28 c10 -38 -9 -34 -34 7 -22 36 -30 130 -11 141 6 3 10 -3 10 -15 0 -20 2 -19 25 8 31 37 31 42 1 42 -29 0 -72 -33 -92 -71 -17 -33 -35 -31 -27 4 5 20 2 19 -21 -8 -31 -36 -32 -60 -6 -103 30 -49 98 -76 169 -68 31 4 77 10 103 13 80 9 103 -30 46 -78 -29 -24 -31 -28 -15 -34 11 -5 25 -1 38 10 19 18 20 18 33 -1 12 -16 27 -19 89 -19 68 0 78 3 129 36 30 21 77 48 105 62 74 38 103 77 103 138 0 30 8 64 20 86 25 47 25 53 0 112 l-21 47 31 59 c33 63 34 102 1 139 -37 41 -121 63 -121 31z m-175 -215 c45 -6 47 -7 23 -14 -33 -10 -66 -3 -93 19 l-20 17 20 -8 c11 -4 43 -10 70 -14z m-447 -344 c24 -8 21 -26 -4 -26 -21 0 -74 54 -74 75 0 13 7 10 28 -13 15 -16 38 -32 50 -36z"/>
<path d="M1089 830 c-23 -14 -42 -65 -35 -95 6 -22 12 -25 49 -25 52 0 87 9 87 22 0 6 -14 8 -32 5 -19 -4 -46 0 -63 8 l-30 13 30 3 c17 2 48 3 70 4 35 0 40 3 43 24 3 15 -3 30 -14 38 -21 15 -82 17 -105 3z"/>
<path d="M1335 785 c-14 -13 -25 -34 -25 -45 0 -29 76 -62 133 -58 42 3 42 3 41 41 -3 80 -94 118 -149 62z m130 -66 c5 -5 -14 -9 -47 -9 -54 0 -83 12 -56 24 17 7 91 -4 103 -15z"/>
<path d="M1006 738 c-9 -31 -2 -48 21 -48 11 0 13 3 5 13 -5 6 -12 23 -14 37 l-4 25 -8 -27z"/>
<path d="M859 621 c-33 -34 -36 -62 -13 -121 18 -45 21 -46 51 -25 19 14 21 22 16 66 -5 42 -2 55 16 80 l22 29 -31 0 c-21 0 -41 -9 -61 -29z"/>
</g>
<g id="layer110" fill="#fcf7ed" stroke="none">
<path d="M1201 1519 c-58 -11 -166 -47 -211 -69 -46 -24 -160 -108 -160 -119 0 -8 131 -71 148 -71 4 0 22 24 40 53 75 119 182 204 215 171 4 -4 -24 -40 -62 -80 -69 -74 -101 -125 -101 -163 0 -12 2 -21 4 -21 2 0 21 18 43 40 31 31 39 45 36 67 -2 15 2 37 10 47 13 18 18 19 57 7 23 -7 44 -10 47 -7 3 3 0 19 -6 37 -17 49 -4 48 19 -2 15 -32 19 -36 15 -15 -3 15 -9 41 -12 57 -4 22 -1 30 12 35 28 11 49 -9 60 -57 l11 -44 7 43 c6 37 10 43 30 40 24 -3 28 -29 13 -78 -6 -22 -3 -20 27 13 19 20 39 37 45 37 23 0 20 -19 -9 -58 l-30 -41 48 -3 c48 -3 48 -3 48 -38 l0 -35 -65 3 -65 3 35 -26 c45 -33 79 -75 80 -97 0 -29 29 -20 50 15 22 36 27 136 10 197 -8 31 -8 33 5 16 18 -23 35 -103 35 -162 0 -44 1 -45 28 -40 27 6 248 36 264 36 18 0 5 20 -52 83 -105 115 -239 189 -396 222 -79 16 -202 18 -273 4z"/>
<path d="M1275 1238 c-71 -25 -72 -48 -2 -48 60 0 161 -24 195 -46 36 -23 45 -12 20 23 -51 72 -133 99 -213 71z"/>
<path d="M1212 1106 c-17 -19 -32 -32 -35 -30 -9 10 -47 -63 -62 -121 -23 -92 -22 -95 30 -95 44 0 45 1 39 26 -5 18 -3 25 4 20 6 -3 22 -1 35 5 33 15 113 3 137 -21 17 -17 19 -17 44 8 14 14 28 23 31 20 3 -3 -13 -24 -36 -48 l-42 -43 32 6 c47 10 78 -10 104 -64 41 -89 67 -55 67 89 l0 98 -46 73 c-59 91 -94 111 -198 111 -72 0 -75 -1 -104 -34z m58 -96 c-12 -8 -9 -10 12 -10 14 0 28 5 30 12 3 8 22 3 60 -14 31 -15 59 -24 62 -20 3 3 6 -2 6 -10 0 -13 -15 -15 -87 -13 -49 1 -105 7 -126 14 -28 10 -41 10 -51 1 -17 -13 -31 3 -22 26 4 10 13 13 26 9 11 -3 28 -2 37 4 24 14 74 15 53 1z"/>
<path d="M1273 983 c9 -2 25 -2 35 0 9 3 1 5 -18 5 -19 0 -27 -2 -17 -5z"/>
<path d="M928 883 c-9 -10 -21 -30 -27 -46 -6 -15 -17 -27 -25 -27 -20 0 -46 -39 -46 -67 0 -31 12 -29 38 7 16 20 31 30 50 30 49 0 57 13 43 62 -8 24 -14 47 -15 51 -1 5 -9 0 -18 -10z"/>
<path d="M1268 883 c-8 -13 4 -133 13 -133 4 0 11 9 14 20 4 11 17 27 29 35 17 12 22 22 18 45 -2 17 -9 30 -16 30 -6 0 -21 3 -32 6 -12 3 -24 2 -26 -3z"/>
<path d="M1600 835 c0 -9 12 -20 27 -26 l28 -10 -25 -19 c-14 -11 -28 -20 -32 -20 -7 0 -28 -56 -28 -76 0 -8 6 -11 15 -8 8 4 23 3 32 0 15 -6 13 -11 -13 -31 -20 -15 -39 -46 -52 -83 -37 -101 -83 -153 -147 -168 -28 -6 -27 -4 17 30 58 45 93 102 112 183 l14 63 -73 -7 c-64 -5 -79 -3 -130 21 -67 30 -90 32 -113 10 -10 -11 -17 -13 -20 -5 -4 13 -111 4 -127 -11 -7 -7 8 -8 43 -3 32 4 52 3 52 -3 0 -13 -25 -22 -62 -22 -25 0 -29 -3 -22 -17 4 -10 7 -29 6 -43 -3 -53 7 -70 40 -70 23 0 41 -11 74 -44 44 -43 58 -73 29 -62 -36 14 -61 -24 -33 -52 18 -18 42 -15 72 9 23 18 27 18 32 5 10 -26 -5 -66 -30 -77 -57 -27 -137 50 -114 110 17 47 -46 65 -79 23 -15 -19 -17 -90 -3 -126 12 -34 -12 -36 -35 -3 l-16 22 7 -28 c9 -37 -9 -35 -37 5 -30 41 -32 119 -5 145 18 17 18 17 11 -7 l-7 -25 26 24 c32 30 33 41 2 41 -31 0 -70 -32 -86 -70 -16 -39 -45 -42 -36 -4 l7 27 -25 -31 c-15 -16 -26 -35 -26 -42 0 -26 33 -80 58 -96 l27 -17 -27 30 c-27 28 -37 63 -19 63 5 0 12 -9 16 -19 3 -11 21 -26 40 -36 38 -18 45 -31 18 -37 -10 -3 0 -8 22 -12 25 -4 67 -1 112 8 56 12 79 13 97 4 39 -17 41 -39 6 -68 -47 -38 -39 -67 9 -34 15 11 25 13 30 6 22 -37 120 -41 182 -9 216 114 249 144 249 232 0 28 7 59 15 69 21 28 19 93 -4 130 l-20 31 30 44 c33 50 39 112 14 147 -29 42 -125 71 -125 39z m-164 -213 c35 4 46 -5 18 -16 -28 -11 -69 -6 -92 10 -33 23 -27 35 9 17 16 -8 46 -13 65 -11z"/>
<path d="M1092 824 c-12 -8 -22 -23 -22 -34 0 -15 9 -19 61 -22 33 -1 64 1 70 7 43 43 -54 88 -109 49z"/>
<path d="M1335 780 c-24 -25 -27 -34 -19 -48 27 -42 127 -58 157 -24 13 15 14 21 2 49 -26 61 -93 72 -140 23z m127 -56 c9 -6 2 -11 -22 -16 -36 -7 -100 7 -100 23 0 10 103 5 122 -7z"/>
<path d="M1006 731 c-5 -13 -4 -27 3 -34 16 -16 21 -4 12 29 -8 29 -8 29 -15 5z"/>
<path d="M1080 742 c0 -19 73 -32 84 -14 3 5 -8 6 -25 4 -16 -2 -36 1 -44 8 -9 7 -15 8 -15 2z"/>
<path d="M879 635 c-39 -21 -54 -65 -39 -112 19 -58 28 -65 54 -46 19 15 22 24 18 70 -4 46 -1 58 18 78 l23 25 -24 0 c-13 -1 -36 -7 -50 -15z"/>
</g>


</svg>